<svg width="32" height="32" viewBox="0 0 32 32" fill="none" xmlns="http://www.w3.org/2000/svg">
<path d="M16 20C18.2091 20 20 18.2091 20 16C20 13.7909 18.2091 12 16 12C13.7909 12 12 13.7909 12 16C12 18.2091 13.7909 20 16 20Z" fill="#F44336"/>
<path d="M11.3934 11.1927L9.54735 9.26666C7.77535 10.9653 6.66669 13.3513 6.66669 16C6.66669 18.6487 7.77535 21.0347 9.54735 22.7333L11.3934 20.8073C10.1267 19.5927 9.33335 17.8887 9.33335 16C9.33335 14.1113 10.1267 12.4067 11.3934 11.1927Z" fill="#F44336"/>
<path d="M22.4527 9.26666L20.6067 11.1927C21.8734 12.4073 22.6667 14.1113 22.6667 16C22.6667 17.8887 21.8734 19.5927 20.6067 20.8073L22.4527 22.7333C24.2247 21.0347 25.3334 18.6487 25.3334 16C25.3334 13.3513 24.2247 10.9653 22.4527 9.26666Z" fill="#F44336"/>
<path d="M7.70731 7.34733L5.85465 5.414C3.06998 8.08334 1.33331 11.838 1.33331 16C1.33331 20.162 3.06998 23.9167 5.85465 26.586L7.70731 24.6527C5.42798 22.4673 3.99998 19.4 3.99998 16C3.99998 12.6 5.42798 9.53267 7.70731 7.34733Z" fill="#F44336"/>
<path d="M26.1453 5.414L24.2926 7.34733C26.5719 9.53267 27.9999 12.6 27.9999 16C27.9999 19.4 26.5719 22.4673 24.2926 24.6527L26.1453 26.586C28.9299 23.9167 30.6666 20.162 30.6666 16C30.6666 11.838 28.9299 8.08334 26.1453 5.414Z" fill="#F44336"/>
</svg>
